<svg width="408" height="408" viewBox="0 0 408 408" fill="none" xmlns="http://www.w3.org/2000/svg">
<g filter="url(#filter0_f_1850_2664)">
<path d="M204 308C183.431 308 163.323 301.9 146.221 290.473C129.118 279.045 115.788 262.803 107.917 243.799C100.045 224.796 97.9855 203.885 101.998 183.711C106.011 163.537 115.916 145.006 130.461 130.461C145.006 115.916 163.537 106.011 183.711 101.998C203.885 97.9855 224.796 100.045 243.799 107.917C262.803 115.788 279.045 129.118 290.473 146.221C301.901 163.323 308 183.431 308 204L204 204L204 308Z" fill="#F5A03A"/>
</g>
<defs>
<filter id="filter0_f_1850_2664" x="0" y="0" width="408" height="408" filterUnits="userSpaceOnUse" color-interpolation-filters="sRGB">
<feFlood flood-opacity="0" result="BackgroundImageFix"/>
<feBlend mode="normal" in="SourceGraphic" in2="BackgroundImageFix" result="shape"/>
<feGaussianBlur stdDeviation="50" result="effect1_foregroundBlur_1850_2664"/>
</filter>
</defs>
</svg>
