<svg width="51" height="42" viewBox="0 0 51 42" fill="none" xmlns="http://www.w3.org/2000/svg">
<path d="M20 6H12.6667C11.6942 6 10.7616 6.35119 10.0739 6.97631C9.38631 7.60143 9 8.44928 9 9.33333V16C9 16.8841 9.38631 17.7319 10.0739 18.357C10.7616 18.9821 11.6942 19.3333 12.6667 19.3333H20C20.9725 19.3333 21.9051 18.9821 22.5927 18.357C23.2804 17.7319 23.6667 16.8841 23.6667 16V9.33333C23.6667 8.44928 23.2804 7.60143 22.5927 6.97631C21.9051 6.35119 20.9725 6 20 6Z" fill="#0E467B"/>
<path d="M20 22.6667H12.6667C11.6942 22.6667 10.7616 23.0179 10.0739 23.643C9.38631 24.2681 9 25.1159 9 26V32.6667C9 33.5507 9.38631 34.3986 10.0739 35.0237C10.7616 35.6488 11.6942 36 12.6667 36H20C20.9725 36 21.9051 35.6488 22.5927 35.0237C23.2804 34.3986 23.6667 33.5507 23.6667 32.6667V26C23.6667 25.1159 23.2804 24.2681 22.5927 23.643C21.9051 23.0179 20.9725 22.6667 20 22.6667Z" fill="#0E467B"/>
<path d="M38.3333 22.6667H31C30.0275 22.6667 29.0949 23.0179 28.4073 23.643C27.7196 24.2681 27.3333 25.1159 27.3333 26V32.6667C27.3333 33.5507 27.7196 34.3986 28.4073 35.0237C29.0949 35.6488 30.0275 36 31 36H38.3333C39.3058 36 40.2384 35.6488 40.9261 35.0237C41.6137 34.3986 42 33.5507 42 32.6667V26C42 25.1159 41.6137 24.2681 40.9261 23.643C40.2384 23.0179 39.3058 22.6667 38.3333 22.6667Z" fill="#0E467B"/>
<path d="M34.6646 6C35.1137 6.00005 35.5471 6.14993 35.8827 6.42119C36.2182 6.69246 36.4326 7.06625 36.4851 7.47167L36.498 7.66667V11H40.1646C40.6319 11.0005 41.0814 11.1631 41.4211 11.4547C41.7609 11.7464 41.9654 12.1449 41.9928 12.569C42.0202 12.9931 41.8684 13.4106 41.5685 13.7364C41.2686 14.0621 40.8431 14.2715 40.3791 14.3217L40.1646 14.3333H36.498V17.6667C36.4975 18.0915 36.3185 18.5001 35.9977 18.8089C35.677 19.1178 35.2386 19.3037 34.7721 19.3286C34.3056 19.3535 33.8463 19.2155 33.4879 18.9429C33.1296 18.6702 32.8993 18.2835 32.8441 17.8617L32.8313 17.6667V14.3333H29.1646C28.6974 14.3329 28.2479 14.1702 27.9081 13.8786C27.5683 13.587 27.3639 13.1884 27.3365 12.7643C27.3091 12.3403 27.4609 11.9227 27.7608 11.5969C28.0607 11.2712 28.4861 11.0618 28.9501 11.0117L29.1646 11H32.8313V7.66667C32.8313 7.22464 33.0245 6.80072 33.3683 6.48816C33.7121 6.17559 34.1784 6 34.6646 6Z" fill="#0E467B"/>
</svg>
