<svg width="51" height="49" viewBox="0 0 51 49" fill="none" xmlns="http://www.w3.org/2000/svg">
<path d="M6 10.8333C6 12.6456 8.05446 14.3837 11.7114 15.6652C15.3684 16.9467 20.3283 17.6667 25.5 17.6667C30.6717 17.6667 35.6316 16.9467 39.2886 15.6652C42.9455 14.3837 45 12.6456 45 10.8333M6 10.8333C6 9.02102 8.05446 7.28294 11.7114 6.00144C15.3684 4.71994 20.3283 4 25.5 4C30.6717 4 35.6316 4.71994 39.2886 6.00144C42.9455 7.28294 45 9.02102 45 10.8333M6 10.8333V24.5M45 10.8333V24.5M6 24.5C6 26.3123 8.05446 28.0504 11.7114 29.3319C15.3684 30.6134 20.3283 31.3333 25.5 31.3333C30.6717 31.3333 35.6316 30.6134 39.2886 29.3319C42.9455 28.0504 45 26.3123 45 24.5M6 24.5V38.1667C6 39.979 8.05446 41.7171 11.7114 42.9986C15.3684 44.2801 20.3283 45 25.5 45C30.6717 45 35.6316 44.2801 39.2886 42.9986C42.9455 41.7171 45 39.979 45 38.1667V24.5" stroke="#0E467B" stroke-width="4" stroke-linecap="round" stroke-linejoin="round"/>
</svg>
