<svg width="52" height="50" viewBox="0 0 52 50" fill="none" xmlns="http://www.w3.org/2000/svg">
<path d="M13.25 16.668H13.2713M19.625 16.668H19.6463M6.875 14.5846C6.875 13.4796 7.32277 12.4198 8.1198 11.6384C8.91683 10.857 9.99783 10.418 11.125 10.418H40.875C42.0022 10.418 43.0832 10.857 43.8802 11.6384C44.6772 12.4198 45.125 13.4796 45.125 14.5846V35.418C45.125 36.523 44.6772 37.5828 43.8802 38.3642C43.0832 39.1456 42.0022 39.5846 40.875 39.5846H11.125C9.99783 39.5846 8.91683 39.1456 8.1198 38.3642C7.32277 37.5828 6.875 36.523 6.875 35.418V14.5846Z" stroke="#0E467B" stroke-width="3" stroke-linecap="round" stroke-linejoin="round"/>
</svg>
