<svg width="51" height="46" viewBox="0 0 51 46" fill="none" xmlns="http://www.w3.org/2000/svg">
<path d="M34.7428 26.6991C35.4115 25.1887 35.6739 23.5462 35.5065 21.9174C35.3391 20.2886 34.7472 18.7239 33.7833 17.3623C32.8195 16.0006 31.5134 14.8841 29.9812 14.1119C28.4489 13.3397 26.7379 12.9356 25 12.9356C23.2621 12.9356 21.551 13.3397 20.0188 14.1119C18.4866 14.8841 17.1805 16.0006 16.2167 17.3623C15.2528 18.7239 14.6609 20.2886 14.4935 21.9174C14.3261 23.5462 14.5885 25.1887 15.2572 26.6991M42.538 29.7718C43.7413 27.0532 44.2131 24.0968 43.9115 21.1653C43.6099 18.2337 42.5443 15.4176 40.8092 12.9669C39.0742 10.5162 36.7234 8.50677 33.9655 7.11697C31.2077 5.72717 28.128 5 25 5C21.872 5 18.7923 5.72717 16.0345 7.11697C13.2766 8.50677 10.9258 10.5162 9.19076 12.9669C7.45571 15.4176 6.39011 18.2337 6.08852 21.1653C5.78693 24.0968 6.2587 27.0532 7.46195 29.7718M18.6667 40.7647L25 22.8746L31.3333 40.7647M20.7778 36.7891H29.2222M22.8889 22.8746C22.8889 23.4018 23.1113 23.9074 23.5072 24.2802C23.9031 24.653 24.4401 24.8624 25 24.8624C25.5599 24.8624 26.0969 24.653 26.4928 24.2802C26.8887 23.9074 27.1111 23.4018 27.1111 22.8746C27.1111 22.3474 26.8887 21.8418 26.4928 21.469C26.0969 21.0962 25.5599 20.8868 25 20.8868C24.4401 20.8868 23.9031 21.0962 23.5072 21.469C23.1113 21.8418 22.8889 22.3474 22.8889 22.8746Z" stroke="#0E467B" stroke-width="4" stroke-linecap="round" stroke-linejoin="round"/>
</svg>
