<svg width="107" height="37" viewBox="0 0 107 37" fill="none" xmlns="http://www.w3.org/2000/svg">
<path d="M97.0666 7.54669V7.52734C97.0631 7.52734 97.0631 7.53122 97.0596 7.53122C97.0526 7.53122 97.0526 7.52734 97.0456 7.52734V7.54669L87.9717 27.5847H90.0964L92.3474 22.5394H92.3509L92.3474 22.5316L93.2835 20.512H93.28L97.0561 12.1277L100.829 20.512H100.822L101.758 22.5316L101.754 22.5394H101.765L104.016 27.5847H106.144L97.0666 7.54669Z" fill="#F69321"/>
<path d="M51.9493 25.5606H51.1289H50.8659H50.5504C50.042 25.5103 49.0988 25.224 49.0392 23.6919V23.1541H49.0357V19.2734C48.9971 19.227 48.9796 19.1767 48.9445 19.1341H49.0357V16.1704V14.7504V11.6474V10.3474V7.47656H47.209V10.5254V19.1341V25.7193C47.2686 27.2514 48.2117 27.5416 48.7166 27.5842H49.0357H51.9493H59.9083H60.8444V25.5606H59.9083H51.9493Z" fill="#F69321"/>
<path d="M74.2484 7.0272C73.0493 7.06589 71.9308 7.32512 70.9211 7.78167C69.7816 8.31173 68.7543 9.07394 67.8707 10.0412C67.0012 11.0278 66.3175 12.1576 65.8336 13.3996C65.3428 14.7151 65.0903 16.0886 65.0903 17.4814C65.0903 18.8821 65.3428 20.2633 65.8336 21.5749C66.3175 22.8363 67.0047 23.966 67.8777 24.9294C68.7508 25.8967 69.7781 26.6589 70.9246 27.189C71.8116 27.5914 72.7618 27.839 73.7505 27.9318V27.9744H80.8365C81.3519 27.9318 82.2915 27.6417 82.4002 26.1559C82.4072 26.1559 82.4072 26.1559 82.4107 26.1559V25.2235V19.8145V17.7368C82.4072 17.7368 82.4072 17.7368 82.4002 17.7368C82.2915 16.2588 81.3484 15.9648 80.8365 15.9183H80.3281V15.9145H76.7273H74.2484H72.4603V17.0326H72.4533V18.0309H74.2414H75.5948H77.3864H78.9256C79.434 18.0773 80.3596 18.3597 80.4894 19.7913V24.0976C80.3596 25.533 79.434 25.8154 78.9256 25.8619H73.8312C70.006 25.4169 67.0187 21.8303 67.0187 17.4814C67.0187 12.974 70.2268 9.28674 74.2484 9.0662V9.08168H82.4107V7.01172H74.2484V7.0272Z" fill="#F69321"/>
<path d="M37.9038 7.42578H34.9095C29.8782 7.42578 25.79 11.9255 25.79 17.4854C25.79 23.0491 29.8747 27.545 34.9095 27.545H37.9038H38.5104H41.3118V25.5099H38.5104H37.9038H34.9095C31.1229 25.5099 28.0094 22.3101 27.6693 18.2205H28.0866H37.3674H37.9073H38.5139H41.3153V16.1931H38.5139H37.9073H37.3674H28.0866H27.736C28.2969 12.3705 31.2982 9.46092 34.9095 9.46092H37.9038H38.5104H41.3118V7.42578H38.5104H37.9038Z" fill="#F69321"/>
<path d="M14.6652 0.773438C14.6652 0.773438 14.546 2.05797 12.7964 3.34637C11.0994 4.59222 7.7861 5.76842 8.88002 9.64137L8.91859 8.086L9.5567 6.98718L13.3609 4.50323L14.6967 3.16066L15.0754 1.64398L14.6652 0.773438Z" fill="#D1D2D3"/>
<path d="M26.1968 36.9112V31.7344H27.1715L28.3811 33.9514C28.6932 34.5279 28.9666 35.1276 29.1805 35.6886H29.1945C29.1384 34.9999 29.1174 34.3305 29.1174 33.5412V31.7344H29.9098V36.9112H29.0262L27.8026 34.6323C27.5046 34.0713 27.1925 33.4329 26.9611 32.8487L26.9401 32.8564C26.9751 33.5258 26.9822 34.2067 26.9822 35.0618V36.9112H26.1968Z" fill="#BBBDBF"/>
<path d="M40.1338 34.6168H38.3667V36.1374H40.3442V36.9112H37.5112V31.7344H40.239V32.5121H38.3667V33.8469H40.1338V34.6168Z" fill="#BBBDBF"/>
<path d="M48.6747 32.5275H47.3389V31.7344H50.8801V32.5275H49.5302V36.9112H48.6747V32.5275Z" fill="#BBBDBF"/>
<path d="M59.0391 36.9112L57.8926 31.7344H58.8042L59.2495 34.0829C59.3687 34.7136 59.4809 35.3713 59.5545 35.8859H59.5685C59.6457 35.3404 59.7754 34.729 59.9086 34.0752L60.417 31.7344H61.3146L61.7809 34.1139C61.9001 34.7291 61.9983 35.3055 62.0684 35.8666H62.0824C62.1666 35.2978 62.2788 34.7058 62.4015 34.079L62.8888 31.7382H63.7584L62.4997 36.9151H61.581L61.0937 34.4814C60.9745 33.8895 60.8903 33.3981 60.8342 32.8371H60.8202C60.7361 33.3903 60.6449 33.8895 60.5082 34.4814L59.9647 36.9151H59.0391V36.9112Z" fill="#BBBDBF"/>
<path d="M75.0653 34.2678C75.0653 36.005 74.1117 36.9955 72.8179 36.9955C71.4961 36.9955 70.6616 35.8812 70.6616 34.3607C70.6616 32.7705 71.5662 31.6484 72.888 31.6484C74.2554 31.6523 75.0653 32.7976 75.0653 34.2678ZM71.5662 34.3452C71.5662 35.3976 72.0466 36.241 72.867 36.241C73.6944 36.241 74.1608 35.3898 74.1608 34.3065C74.1608 33.3315 73.7225 32.4029 72.867 32.4029C72.015 32.4029 71.5662 33.2812 71.5662 34.3452Z" fill="#BBBDBF"/>
<path d="M82.4146 31.8036C82.7336 31.7417 83.2139 31.6953 83.7083 31.6953C84.3815 31.6953 84.8408 31.8191 85.1564 32.1093C85.4158 32.3492 85.5596 32.709 85.5596 33.1462C85.5596 33.8156 85.1493 34.2682 84.7111 34.4424V34.4656C85.0442 34.6049 85.2475 34.9647 85.3632 35.4638C85.5105 36.1099 85.6367 36.7096 85.7314 36.907H84.8478C84.7777 36.7561 84.669 36.3305 84.5358 35.6843C84.4025 35.0111 84.1817 34.7944 83.6943 34.779H83.263V36.907H82.4146V31.8036ZM83.263 34.0941H83.7714C84.3499 34.0941 84.7111 33.7575 84.7111 33.2429C84.7111 32.6742 84.3499 32.415 83.7925 32.415C83.519 32.415 83.3472 32.4382 83.263 32.4614V34.0941Z" fill="#BBBDBF"/>
<path d="M92.9858 31.7344H93.8343V34.1139H93.8554C93.9676 33.9127 94.0868 33.7308 94.1955 33.5528L95.4191 31.7344H96.478L94.8651 33.9359L96.5831 36.9073H95.5804L94.2516 34.5356L93.8343 35.0889V36.9073H92.9858V31.7344Z" fill="#BBBDBF"/>
<path d="M103.627 35.8812C103.904 36.0592 104.321 36.2101 104.759 36.2101C105.31 36.2101 105.615 35.9238 105.615 35.5059C105.615 35.1152 105.376 34.883 104.78 34.647C104.005 34.3414 103.515 33.8887 103.515 33.1419C103.515 32.2985 104.153 31.6523 105.169 31.6523C105.678 31.6523 106.053 31.7723 106.298 31.9116L106.092 32.6738C105.923 32.5732 105.597 32.43 105.159 32.43C104.615 32.43 104.381 32.7512 104.381 33.0529C104.381 33.4515 104.651 33.6372 105.278 33.9042C106.095 34.2408 106.488 34.6934 106.488 35.4402C106.488 36.2682 105.916 36.9994 104.707 36.9994C104.212 36.9994 103.697 36.8369 103.441 36.6667L103.627 35.8812Z" fill="#BBBDBF"/>
<path d="M17.1719 4.78516C17.1719 4.78516 15.3697 9.07597 9.78088 10.6932C4.19208 12.3105 -0.54824 18.3618 0.0513118 24.0996L3.03855 18.4275L9.43378 14.2064L15.5906 10.3798L17.1438 7.21494L17.1719 4.78516Z" fill="#D1D2D3"/>
<path d="M15.8398 2.79297C16.3131 3.72542 16.5831 4.79715 16.5831 5.93853C16.5831 9.50969 13.9605 12.4038 10.7243 12.4038C7.48813 12.4038 4.86553 9.50969 4.86553 5.93853C4.86553 5.17245 4.99175 4.4412 5.21264 3.76024C4.76385 4.7159 4.50439 5.79924 4.50439 6.95223C4.50439 10.7904 7.32334 13.9011 10.8014 13.9011C14.2796 13.9011 17.0985 10.7904 17.0985 6.95223C17.102 5.38912 16.6287 3.94982 15.8398 2.79297Z" fill="#CE6A28"/>
<path d="M5.18459 8.79829C5.18459 5.22713 7.80719 2.33306 11.0434 2.33306C14.2445 2.33306 16.839 5.16522 16.8951 8.67834C17.0249 8.12507 17.0985 7.54858 17.0985 6.94887C17.0985 3.11074 14.2796 0 10.8014 0C7.32334 0 4.50439 3.11074 4.50439 6.94887C4.50439 8.24501 4.83047 9.45603 5.39146 10.4929C5.26523 9.95514 5.18459 9.38639 5.18459 8.79829Z" fill="#F69321"/>
<path opacity="0.7" d="M4.95642 9.35377C5.04057 9.56657 5.13874 9.77163 5.24392 9.97282C4.44803 7.06328 5.88205 3.80938 8.65892 2.47068C11.6392 1.03138 15.0401 2.33913 16.2497 5.3957C16.4671 5.94898 16.5969 6.52161 16.6494 7.0981C16.7827 6.0341 16.6635 4.93528 16.2568 3.90611C14.991 0.710248 11.4358 -0.659407 8.31532 0.845665C5.19134 2.34687 3.6907 6.15791 4.95642 9.35377Z" fill="url(#paint0_linear_1834_2565)"/>
<path d="M18.8547 15.7305C18.8547 15.7305 18.6338 18.1061 15.4046 20.4817C12.2701 22.7877 6.14486 24.9582 8.16791 32.116L8.24154 29.2374L9.41961 27.2062L16.4529 22.6174L18.9213 20.1374L19.619 17.3361L18.8547 15.7305Z" fill="#D1D2D3"/>
<path d="M1.91317 26.3202C1.91317 20.5746 6.13107 15.9201 11.3342 15.9201C16.5408 15.9201 20.7587 20.5746 20.7587 26.3202C20.7587 27.5118 20.5659 28.6571 20.2328 29.725C20.9481 28.158 21.3583 26.3937 21.3583 24.5172C21.3583 18.0945 16.639 12.8867 10.8188 12.8867C4.99858 12.8867 0.279297 18.0945 0.279297 24.5172C0.279297 28.9705 2.55129 32.8357 5.88213 34.7896C3.48392 32.9053 1.91317 29.8178 1.91317 26.3202Z" fill="#CE6A28"/>
<path d="M10.8326 12.9414C9.22326 12.9414 7.7051 13.3515 6.3377 14.0634C7.05646 13.8623 7.80678 13.7423 8.58515 13.7423C13.5884 13.7423 17.645 18.2188 17.645 23.74C17.645 29.2612 13.5884 33.7338 8.58515 33.7338C5.73464 33.7338 3.19268 32.2752 1.53076 30.004C3.29786 33.6758 6.80051 36.183 10.8326 36.183C16.6493 36.183 21.3616 30.9791 21.3616 24.5641C21.3651 18.1415 16.6493 12.9414 10.8326 12.9414Z" fill="#F69321"/>
<path opacity="0.5" d="M10.4262 12.7578C10.0371 12.7578 9.65489 12.7849 9.27973 12.8313C14.2865 13.4426 18.1783 18.1242 18.1783 23.8118C18.1783 29.9133 13.694 34.8619 8.16477 34.8619C7.16201 34.8619 6.19782 34.6955 5.28271 34.3937C6.80439 35.3416 8.55747 35.891 10.4262 35.891C16.2149 35.891 20.9061 30.7142 20.9061 24.3264C20.9061 17.9346 16.2149 12.7578 10.4262 12.7578Z" fill="url(#paint1_linear_1834_2565)"/>
<path d="M8.88349 9.64137C8.88349 9.64137 7.89826 6.83242 10.044 5.56723C12.1863 4.30204 14.9982 2.68476 14.6686 0.773438C14.6686 0.773438 16.4463 2.39071 15.731 3.64429C15.0122 4.89788 14.1182 5.3583 13.0418 5.95414C11.9619 6.5461 8.87998 8.28332 8.88349 9.64137Z" fill="#1B4177"/>
<path d="M8.16811 32.1199C8.16811 32.1199 6.34842 26.9315 10.3104 24.5946C14.2723 22.2576 19.4614 19.2707 18.8549 15.7344C18.8549 15.7344 22.1401 18.7213 20.8148 21.035C19.4895 23.3526 17.8346 24.2038 15.8431 25.3026C13.8551 26.3976 8.16811 29.6128 8.16811 32.1199Z" fill="#1B4177"/>
<path opacity="0.3" d="M8.375 30.3458C8.375 30.3458 8.75367 25.8074 12.0354 23.869C15.3172 21.9345 19.6368 19.2609 19.1319 16.332C19.1319 16.332 21.8211 19.1835 20.5378 20.9981C19.2721 22.7857 18.2834 23.5866 16.639 24.4919C14.9911 25.405 8.375 28.2681 8.375 30.3458Z" fill="url(#paint2_linear_1834_2565)"/>
<path opacity="0.3" d="M9.87891 7.85564C9.87891 7.85564 10.0542 5.75473 11.5759 4.8571C13.0976 3.95947 15.0961 2.72137 14.8647 1.36719C14.8647 1.36719 16.1093 2.68654 15.5133 3.53C14.9278 4.35799 14.4685 4.72942 13.7076 5.15115C12.9433 5.56514 9.87891 6.89224 9.87891 7.85564Z" fill="url(#paint3_linear_1834_2565)"/>
<path d="M7.45648 17.5144C7.49856 17.4951 7.74749 17.3829 8.13667 17.2049C8.50482 17.0347 8.99218 16.7987 9.54615 16.5201C10.1773 16.1989 10.889 15.8236 11.6043 15.4135C12.8349 14.7055 14.0621 13.9046 14.8439 13.1385C14.8685 13.1153 14.8895 13.0921 14.9141 13.0689C15.0438 12.9373 15.163 12.8096 15.2647 12.682C16.7583 10.79 17.4525 9.07983 17.3859 6.68874C17.3438 5.19528 17.1615 5.1295 17.13 4.78516C17.13 4.78516 17.0598 8.63489 11.5271 10.937C9.49005 11.7843 8.03149 12.4537 6.92355 13.0186C5.32825 13.8349 4.47625 14.4656 3.78905 15.2433C1.482 17.4835 0.0234375 20.7993 0.0234375 24.502C0.0234375 26.3824 0.402101 28.1583 1.07178 29.7485C1.06827 29.7175 1.07178 29.6827 1.06827 29.6517C1.04373 29.3306 1.0297 29.0056 1.0297 28.6767C1.0297 23.7011 3.66984 19.418 7.45648 17.5144Z" fill="#1B4177"/>
<mask id="mask0_1834_2565" style="mask-type:luminance" maskUnits="userSpaceOnUse" x="87" y="7" width="20" height="21">
<path d="M97.0666 7.54278V7.52344C97.0631 7.52344 97.0631 7.52731 97.0596 7.52731C97.0526 7.52731 97.0526 7.52344 97.0456 7.52344V7.54278L87.9717 27.5808H90.0964L92.3474 22.5355H92.3509L92.3474 22.5277L93.2835 20.5081H93.28L97.0561 12.1238L100.829 20.5081H100.822L101.758 22.5277L101.754 22.5355H101.765L104.016 27.5808H106.144L97.0666 7.54278Z" fill="white"/>
</mask>
<g mask="url(#mask0_1834_2565)">
<path opacity="0.5" d="M97.1262 7.87482V7.85547C97.1227 7.85547 97.1227 7.85934 97.1192 7.85934C97.1122 7.85934 97.1122 7.85547 97.1052 7.85547V7.87482L88.0312 27.9128H90.156L92.4069 22.8675H92.4104L92.4069 22.8598L93.3431 20.8401H93.3396L97.1157 12.4558L100.888 20.8401H100.881L101.817 22.8598L101.814 22.8675H101.824L104.075 27.9128H106.204L97.1262 7.87482Z" fill="url(#paint4_linear_1834_2565)"/>
</g>
<mask id="mask1_1834_2565" style="mask-type:luminance" maskUnits="userSpaceOnUse" x="47" y="7" width="14" height="21">
<path d="M51.9493 25.5606H51.1289H50.8659H50.5504C50.042 25.5103 49.0988 25.224 49.0392 23.6919V23.1541H49.0357V19.2734C48.9971 19.227 48.9796 19.1767 48.9445 19.1341H49.0357V16.1704V14.7504V11.6474V10.3474V7.47656H47.209V10.5254V19.1341V25.7193C47.2686 27.2514 48.2117 27.5416 48.7166 27.5842H49.0357H51.9493H59.9083H60.8444V25.5606H59.9083H51.9493V25.5606Z" fill="white"/>
</mask>
<g mask="url(#mask1_1834_2565)">
<path opacity="0.5" d="M52.0089 25.8888H51.1884H50.9255H50.6099C50.1015 25.8385 49.1584 25.5522 49.0988 24.02V23.4822H49.0953V19.6015C49.0567 19.5551 49.0392 19.5048 49.0041 19.4622H49.0953V16.4985V15.0786V11.9756V10.6755V7.80469H47.2686V10.8535V19.4622V26.0474C47.3282 27.5796 48.2713 27.8697 48.7762 27.9123H49.0953H52.0019H59.9608H60.897V25.8888H59.9608H52.0089Z" fill="url(#paint5_linear_1834_2565)"/>
</g>
<mask id="mask2_1834_2565" style="mask-type:luminance" maskUnits="userSpaceOnUse" x="65" y="7" width="18" height="21">
<path d="M74.2484 7.0272C73.0493 7.06589 71.9308 7.32512 70.9211 7.78167C69.7816 8.31173 68.7543 9.07394 67.8707 10.0412C67.0012 11.0278 66.3175 12.1576 65.8336 13.3996C65.3428 14.7151 65.0903 16.0886 65.0903 17.4814C65.0903 18.8821 65.3428 20.2633 65.8336 21.5749C66.3175 22.8363 67.0047 23.966 67.8777 24.9294C68.7508 25.8967 69.7781 26.6589 70.9246 27.189C71.8116 27.5914 72.7618 27.839 73.7505 27.9318V27.9744H80.8365C81.3519 27.9318 82.2915 27.6417 82.4002 26.1559C82.4072 26.1559 82.4072 26.1559 82.4107 26.1559V25.2235V19.8145V17.7368C82.4072 17.7368 82.4072 17.7368 82.4002 17.7368C82.2915 16.2588 81.3484 15.9648 80.8365 15.9183H80.3281V15.9145H76.7273H74.2484H72.4603V17.0326H72.4533V18.0309H74.2414H75.5948H77.3864H78.9256C79.434 18.0773 80.3596 18.3597 80.4894 19.7913V24.0976C80.3596 25.533 79.434 25.8154 78.9256 25.8619H73.8312C70.006 25.4169 67.0187 21.8303 67.0187 17.4814C67.0187 12.974 70.2268 9.28674 74.2484 9.0662V9.08168H82.4107V7.01172H74.2484V7.0272Z" fill="white"/>
</mask>
<g mask="url(#mask2_1834_2565)">
<path opacity="0.5" d="M74.308 7.35532C73.1089 7.39788 71.9904 7.65324 70.9806 8.10979C69.8411 8.63986 68.8138 9.40206 67.9303 10.3693C67.0608 11.3559 66.3771 12.4857 65.8932 13.7277C65.4023 15.0432 65.1499 16.4167 65.1499 17.8096C65.1499 19.2102 65.4023 20.5914 65.8932 21.9031C66.3771 23.1644 67.0643 24.2942 67.9373 25.2576C68.8103 26.2248 69.8376 26.987 70.9841 27.5171C71.8712 27.9195 72.8214 28.1671 73.8101 28.26V28.3025H80.896C81.4114 28.26 82.3511 27.9698 82.4598 26.4841C82.4668 26.4841 82.4668 26.4841 82.4703 26.4841V25.5516V20.1426V18.0649C82.4668 18.0649 82.4668 18.0649 82.4598 18.0649C82.3511 16.5869 81.4079 16.2929 80.896 16.2465H80.3876V16.2426H76.7868H74.308H72.5198V17.3608H72.5128V18.359H74.301H75.6543H77.446H78.9852C79.4936 18.4054 80.4192 18.6879 80.5489 20.1194V24.4257C80.4192 25.8611 79.4936 26.1436 78.9852 26.19H73.8907C70.0655 25.7451 67.0783 22.1584 67.0783 17.8096C67.0783 13.3021 70.2864 9.61486 74.308 9.39432V9.4098H82.4703V7.33984H74.308V7.35532Z" fill="url(#paint6_linear_1834_2565)"/>
</g>
<mask id="mask3_1834_2565" style="mask-type:luminance" maskUnits="userSpaceOnUse" x="25" y="7" width="17" height="21">
<path d="M37.9038 7.42578H34.9095C29.8782 7.42578 25.79 11.9255 25.79 17.4854C25.79 23.0491 29.8747 27.545 34.9095 27.545H37.9038H38.5104H41.3118V25.5099H38.5104H37.9038H34.9095C31.1229 25.5099 28.0094 22.3101 27.6693 18.2205H28.0866H37.3674H37.9073H38.5139H41.3153V16.1931H38.5139H37.9073H37.3674H28.0866H27.736C28.2969 12.3705 31.2982 9.46092 34.9095 9.46092H37.9038H38.5104H41.3118V7.42578H38.5104H37.9038Z" fill="white"/>
</mask>
<g mask="url(#mask3_1834_2565)">
<path opacity="0.5" d="M37.9634 7.75391H34.9691C29.9378 7.75391 25.8496 12.2536 25.8496 17.8135C25.8496 23.3773 29.9343 27.8731 34.9691 27.8731H37.9634H38.5699H41.3714V25.838H38.5699H37.9634H34.9691C31.1825 25.838 28.069 22.6383 27.7289 18.5486H28.1461H37.4269H37.9669H38.5734H41.3749V16.5212H38.5734H37.9669H37.4269H28.1426H27.792C28.353 12.6986 31.3543 9.78905 34.9656 9.78905H37.9599H38.5664H41.3678V7.75391H38.5664H37.9634Z" fill="url(#paint7_linear_1834_2565)"/>
</g>
<mask id="mask4_1834_2565" style="mask-type:luminance" maskUnits="userSpaceOnUse" x="0" y="4" width="18" height="26">
<path d="M7.45648 17.5144C7.49856 17.4951 7.74749 17.3829 8.13667 17.2049C8.50482 17.0347 8.99218 16.7987 9.54615 16.5201C10.1773 16.1989 10.889 15.8236 11.6043 15.4135C12.8349 14.7055 14.0621 13.9046 14.8439 13.1385C14.8685 13.1153 14.8895 13.0921 14.9141 13.0689C15.0438 12.9373 15.163 12.8096 15.2647 12.682C16.7583 10.79 17.4525 9.07983 17.3859 6.68874C17.3438 5.19528 17.1615 5.1295 17.13 4.78516C17.13 4.78516 17.0598 8.63489 11.5271 10.937C9.49005 11.7843 8.03149 12.4537 6.92355 13.0186C5.32825 13.8349 4.47625 14.4656 3.78905 15.2433C1.482 17.4835 0.0234375 20.7993 0.0234375 24.502C0.0234375 26.3824 0.402101 28.1583 1.07178 29.7485C1.06827 29.7175 1.07178 29.6827 1.06827 29.6517C1.04373 29.3306 1.0297 29.0056 1.0297 28.6767C1.0297 23.7011 3.66984 19.418 7.45648 17.5144Z" fill="white"/>
</mask>
<g mask="url(#mask4_1834_2565)">
<path opacity="0.3" d="M7.62118 17.0833C7.65974 17.0717 7.87712 16.9866 8.22072 16.8512C8.54329 16.7235 8.97455 16.5455 9.46541 16.3366C10.0229 16.0967 10.654 15.8104 11.2851 15.497C12.3755 14.9554 13.4694 14.3324 14.1777 13.7172C14.1987 13.6979 14.2198 13.6786 14.2408 13.6592C14.36 13.5547 14.4687 13.4464 14.5599 13.3458C15.9273 11.7982 16.6039 10.3666 16.653 8.30054C16.6846 7.01213 16.5303 6.94636 16.5163 6.64844C16.5163 6.64844 16.2814 9.9565 11.4183 11.6357C9.62669 12.2547 8.33993 12.75 7.36172 13.1756C5.95224 13.7908 5.19141 14.286 4.56381 14.9167C2.47765 16.7197 1.07168 19.4938 0.906887 22.6819C0.82274 24.2992 1.06817 25.8507 1.57306 27.259C1.57306 27.2319 1.57306 27.2049 1.57306 27.1739C1.56604 26.8953 1.56955 26.6168 1.58358 26.3343C1.81148 22.0551 4.2763 18.5149 7.62118 17.0833Z" fill="url(#paint8_linear_1834_2565)"/>
</g>
<defs>
<linearGradient id="paint0_linear_1834_2565" x1="11.7323" y1="9.469" x2="7.70948" y2="1.13263" gradientUnits="userSpaceOnUse">
<stop offset="0.0102" stop-color="#F69321"/>
<stop offset="0.551" stop-color="#FFF200"/>
<stop offset="1" stop-color="#F7941D"/>
</linearGradient>
<linearGradient id="paint1_linear_1834_2565" x1="5.28236" y1="24.3216" x2="20.9065" y2="24.3216" gradientUnits="userSpaceOnUse">
<stop offset="0.0102" stop-color="#F69321"/>
<stop offset="0.551" stop-color="#FFF200"/>
<stop offset="1" stop-color="#F7941D"/>
</linearGradient>
<linearGradient id="paint2_linear_1834_2565" x1="8.37437" y1="23.3392" x2="20.8853" y2="23.3392" gradientUnits="userSpaceOnUse">
<stop offset="0.4235" stop-color="#1B4177"/>
<stop offset="1" stop-color="#00AEEF"/>
</linearGradient>
<linearGradient id="paint3_linear_1834_2565" x1="9.87821" y1="4.60836" x2="15.6749" y2="4.60836" gradientUnits="userSpaceOnUse">
<stop offset="0.4235" stop-color="#1B4177"/>
<stop offset="1" stop-color="#00AEEF"/>
</linearGradient>
<linearGradient id="paint4_linear_1834_2565" x1="88.0322" y1="17.8832" x2="106.21" y2="17.8832" gradientUnits="userSpaceOnUse">
<stop offset="0.0102" stop-color="#F69321"/>
<stop offset="0.551" stop-color="#FFF200"/>
<stop offset="1" stop-color="#F7941D"/>
</linearGradient>
<linearGradient id="paint5_linear_1834_2565" x1="47.272" y1="17.8593" x2="60.9041" y2="17.8593" gradientUnits="userSpaceOnUse">
<stop offset="0.0102" stop-color="#F69321"/>
<stop offset="0.551" stop-color="#FFF200"/>
<stop offset="1" stop-color="#F7941D"/>
</linearGradient>
<linearGradient id="paint6_linear_1834_2565" x1="65.1514" y1="17.8237" x2="82.4707" y2="17.8237" gradientUnits="userSpaceOnUse">
<stop offset="0.0102" stop-color="#F69321"/>
<stop offset="0.551" stop-color="#FFF200"/>
<stop offset="1" stop-color="#F7941D"/>
</linearGradient>
<linearGradient id="paint7_linear_1834_2565" x1="25.8476" y1="17.8168" x2="41.369" y2="17.8168" gradientUnits="userSpaceOnUse">
<stop offset="0.0102" stop-color="#F69321"/>
<stop offset="0.551" stop-color="#FFF200"/>
<stop offset="1" stop-color="#F7941D"/>
</linearGradient>
<linearGradient id="paint8_linear_1834_2565" x1="0.89111" y1="16.9583" x2="16.6558" y2="16.9583" gradientUnits="userSpaceOnUse">
<stop stop-color="#00AEEF"/>
<stop offset="0.0194" stop-color="#00A0DC"/>
<stop offset="0.0649" stop-color="#0088BF"/>
<stop offset="0.1136" stop-color="#0074A8"/>
<stop offset="0.1649" stop-color="#006597"/>
<stop offset="0.2196" stop-color="#00588B"/>
<stop offset="0.2789" stop-color="#004E82"/>
<stop offset="0.345" stop-color="#12477C"/>
<stop offset="0.4235" stop-color="#194378"/>
<stop offset="0.5459" stop-color="#1B4177"/>
<stop offset="0.6573" stop-color="#194278"/>
<stop offset="0.7228" stop-color="#13477B"/>
<stop offset="0.7766" stop-color="#004E81"/>
<stop offset="0.8239" stop-color="#00578A"/>
<stop offset="0.867" stop-color="#006396"/>
<stop offset="0.907" stop-color="#0072A6"/>
<stop offset="0.9447" stop-color="#0085BB"/>
<stop offset="0.9795" stop-color="#009BD6"/>
<stop offset="1" stop-color="#00AEEF"/>
</linearGradient>
</defs>
</svg>
